<?xml version="1.0" encoding="utf-8"?>
<!-- Generator: Adobe Illustrator 16.0.0, SVG Export Plug-In . SVG Version: 6.00 Build 0)  -->
<!DOCTYPE svg PUBLIC "-//W3C//DTD SVG 1.1//EN" "http://www.w3.org/Graphics/SVG/1.1/DTD/svg11.dtd">
<svg version="1.1" id="Layer_1" xmlns="http://www.w3.org/2000/svg" xmlns:xlink="http://www.w3.org/1999/xlink" x="0px" y="0px"
	 width="77.908px" height="30.109px" viewBox="266.011 377.758 77.908 30.109"
	 enable-background="new 266.011 377.758 77.908 30.109" xml:space="preserve">
<g>
	<path fill="#282828" d="M337.131,402.671c0.018,0,0.03-0.004,0.044-0.004h0.001c0.002,0,0.002,0,0.002,0
		c1.81-0.058,3.394-0.726,4.686-2.035c1.387-1.354,2.056-3.001,2.056-4.926c0-1.924-0.669-3.557-2.056-4.927
		c-1.306-1.319-2.888-1.989-4.731-2.055h-4.073h-0.772h-4.678l-1.013,7.292l-0.007-0.035l-0.006,0.035l-1.744-7.292l-1.175,0.012
		l-0.424,0.005h-0.006h-0.095h-0.003l-0.425-0.005l-1.174-0.012l-1.745,7.292l-0.006-0.035l-0.006,0.035l-1.011-7.292h-5.454
		l0.674,3.083c-0.252-0.359-0.542-0.702-0.875-1.027c-1.337-1.369-2.981-2.053-4.921-2.055c-0.001,0-0.003,0-0.003,0h-0.003h-0.001
		c-1.925,0-3.571,0.685-4.925,2.055c-0.606,0.599-1.07,1.258-1.408,1.97c-0.137-1.007-0.564-1.892-1.323-2.638
		c-0.831-0.848-1.826-1.306-2.985-1.387h-8.104c1.917,1.71,3.124,4.198,3.124,6.968c0,0.039-0.002,0.078-0.003,0.116
		c0,0.005,0,0.009,0,0.014c0,0.05-0.003,0.1-0.005,0.151c-0.078,2.662-1.27,5.044-3.128,6.698h5.229v-3.769l2.152,3.769h5.138
		l-2.512-4.452c0.18-0.131,0.522-0.394,0.996-0.8c0.333-0.278,0.585-0.642,0.803-1.046c0.142,1.641,0.816,3.063,2.025,4.259
		c1.354,1.37,3,2.039,4.925,2.039c1.939,0,3.588-0.669,4.928-2.039c1.103-1.077,1.755-2.343,1.979-3.782l1.273,5.821h5.354
		l1.066-4.811l0.397-1.813l0.001,0.01l0.002-0.01l0.396,1.813l1.066,4.811h5.354l2.28-10.424v0.002v10.422L337.131,402.671
		L337.131,402.671z M336.757,393.062c0.049-0.015,0.131-0.015,0.196-0.015c0.7,0,1.337,0.26,1.843,0.783
		c0.521,0.522,0.783,1.142,0.783,1.876c0,0.735-0.263,1.37-0.783,1.876c-0.506,0.521-1.143,0.783-1.843,0.783h-0.196V393.062z
		 M297.367,393.96c0,0.031,0,0.031,0,0.031c0,0.034,0,0.034,0,0.066v0.066c-0.033,0.259-0.146,0.473-0.358,0.685
		c-0.196,0.196-0.44,0.326-0.735,0.326h-1.604c-0.002,0-0.007-0.001-0.009-0.001v-2.363h1.613c0.294,0.015,0.539,0.129,0.735,0.343
		c0.245,0.229,0.343,0.472,0.358,0.799V393.96z M309.967,397.468c-0.491,0.505-1.06,0.751-1.778,0.751
		c-0.686,0-1.287-0.246-1.761-0.751c-0.507-0.473-0.75-1.078-0.75-1.762c0-0.701,0.244-1.289,0.75-1.794
		c0.474-0.491,1.075-0.735,1.761-0.735c0.72,0,1.287,0.244,1.778,0.735c0.488,0.505,0.75,1.093,0.75,1.794
		C310.717,396.39,310.455,396.995,309.967,397.468z"/>
	<rect x="289.429" y="405.03" fill="#282828" width="0.51" height="2.782"/>
	<path fill="#282828" d="M295.382,406.29c0,0.167,0.007,0.431,0.024,0.79h-0.013c-0.125-0.22-0.288-0.471-0.487-0.755l-0.916-1.295
		h-0.534v2.782h0.509v-1.26c0-0.187-0.008-0.452-0.025-0.792h0.013c0.17,0.291,0.336,0.548,0.496,0.771l0.906,1.279h0.535v-2.782
		h-0.508V406.29L295.382,406.29z"/>
	<polygon fill="#282828" points="299.139,405.457 300.038,405.457 300.038,407.812 300.547,407.812 300.547,405.457 
		301.443,405.457 301.443,405.03 299.139,405.03 	"/>
	<polygon fill="#282828" points="305.201,406.603 306.312,406.603 306.312,406.178 305.201,406.178 305.201,405.457 
		306.495,405.457 306.495,405.03 304.692,405.03 304.692,407.812 306.57,407.812 306.57,407.387 305.201,407.387 	"/>
	<path fill="#282828" d="M311.363,406.661c0.225-0.066,0.391-0.165,0.498-0.301c0.107-0.135,0.161-0.302,0.161-0.493
		c0-0.187-0.044-0.341-0.134-0.463c-0.088-0.123-0.214-0.215-0.38-0.277c-0.085-0.032-0.188-0.056-0.308-0.072
		c-0.122-0.016-0.25-0.023-0.393-0.023h-0.846v2.783h0.509v-1.077h0.35l0.758,1.077h0.611l-0.828-1.146L311.363,406.661
		L311.363,406.661z M311.022,406.295c-0.083,0.01-0.181,0.014-0.299,0.014h-0.251v-0.852h0.365c0.105,0,0.199,0.004,0.271,0.016
		s0.134,0.027,0.184,0.051c0.074,0.031,0.126,0.077,0.158,0.136c0.033,0.058,0.046,0.123,0.046,0.199c0,0.086-0.02,0.163-0.058,0.23
		c-0.04,0.065-0.111,0.12-0.216,0.158C311.171,406.269,311.103,406.285,311.022,406.295z"/>
	<path fill="#282828" d="M316.328,405.03l-1.106,2.782h0.543l0.271-0.709h1.05l0.272,0.709h0.539l-1.104-2.782H316.328z
		 M316.92,406.677h-0.719l0.097-0.248c0.075-0.192,0.162-0.438,0.259-0.729h0.01c0.1,0.289,0.185,0.533,0.26,0.729L316.92,406.677z"
		/>
	<path fill="#282828" d="M322.442,407.436c-0.147,0-0.278-0.02-0.396-0.062c-0.115-0.042-0.212-0.105-0.294-0.189
		c-0.08-0.083-0.141-0.187-0.184-0.311c-0.042-0.123-0.065-0.267-0.065-0.43c0-0.166,0.023-0.313,0.07-0.44
		c0.049-0.13,0.114-0.237,0.195-0.323c0.085-0.088,0.187-0.153,0.304-0.199c0.117-0.047,0.245-0.067,0.383-0.067
		c0.091,0,0.186,0.004,0.281,0.019c0.095,0.016,0.199,0.037,0.31,0.074v-0.434c-0.084-0.028-0.179-0.052-0.285-0.067
		c-0.104-0.017-0.217-0.023-0.335-0.023c-0.229,0.002-0.436,0.04-0.618,0.115c-0.181,0.078-0.333,0.183-0.454,0.316
		c-0.12,0.132-0.214,0.288-0.279,0.47c-0.063,0.182-0.098,0.379-0.098,0.592c0,0.205,0.031,0.396,0.091,0.566
		c0.062,0.17,0.151,0.318,0.271,0.44c0.119,0.123,0.27,0.218,0.449,0.283c0.178,0.07,0.385,0.103,0.619,0.103
		c0.122,0,0.237-0.008,0.352-0.023c0.11-0.015,0.217-0.038,0.312-0.064v-0.438c-0.095,0.031-0.198,0.056-0.308,0.071
		S322.547,407.436,322.442,407.436z"/>
	<polygon fill="#282828" points="326.175,405.457 327.073,405.457 327.073,407.812 327.583,407.812 327.583,405.457 
		328.479,405.457 328.479,405.03 326.175,405.03 	"/>
	<rect x="331.729" y="405.03" fill="#282828" width="0.512" height="2.782"/>
	<path fill="#282828" d="M337.044,406.414c-0.073,0.199-0.122,0.331-0.145,0.396c-0.021,0.064-0.06,0.173-0.112,0.323h-0.007
		c-0.051-0.15-0.089-0.259-0.109-0.323c-0.026-0.064-0.073-0.196-0.146-0.396l-0.518-1.384h-0.542l1.088,2.782h0.457l1.088-2.782
		h-0.536L337.044,406.414z"/>
	<polygon fill="#282828" points="341.835,406.603 342.947,406.603 342.947,406.178 341.835,406.178 341.835,405.457 
		343.131,405.457 343.131,405.03 341.327,405.03 341.327,407.812 343.204,407.812 343.204,407.387 341.835,407.387 	"/>
	<path fill="#282828" d="M285.504,396.782c-0.131,0.245-0.292,0.474-0.505,0.686c-0.473,0.488-1.076,0.734-1.778,0.734
		c-0.701,0-1.289-0.246-1.779-0.734c-0.473-0.473-0.716-1.077-0.716-1.762c0-0.701,0.244-1.288,0.716-1.794
		c0.49-0.489,1.078-0.735,1.779-0.735c0.702,0,1.305,0.246,1.778,0.735c0.213,0.212,0.375,0.457,0.522,0.718h4.632
		c-0.211-1.484-0.88-2.758-2.006-3.851c-1.175-1.189-2.572-1.86-4.179-2.018c-0.229-0.018-0.466-0.03-0.712-0.037
		c-0.003,0-0.004,0-0.007,0c-0.012,0-0.024,0-0.037,0c-1.921,0.004-3.55,0.688-4.917,2.055c-1.37,1.355-2.038,3.002-2.038,4.927
		s0.668,3.572,2.038,4.926c0.403,0.403,0.831,0.744,1.279,1.025c1.005,0.604,2.177,0.967,3.428,1.008
		c0.059,0.001,0.119,0.004,0.179,0.004c0.017,0,0.034,0.002,0.052,0.002c1.92-0.004,3.563-0.671,4.915-2.039
		c1.126-1.093,1.778-2.382,2.006-3.85H285.504L285.504,396.782z"/>
	<circle fill="#282828" cx="268.461" cy="393.117" r="1.041"/>
	<circle fill="#282828" cx="270.985" cy="388.576" r="0.479"/>
	<circle fill="#282828" cx="269.123" cy="388.809" r="0.654"/>
	<circle fill="#282828" cx="270.108" cy="385.725" r="1.3"/>
	<circle fill="#282828" cx="272.806" cy="384.581" r="0.828"/>
	<circle fill="#282828" cx="274.089" cy="381.686" r="0.615"/>
	<circle fill="#282828" cx="277.112" cy="382.701" r="0.963"/>
	<circle fill="#282828" cx="277.073" cy="378.604" r="0.828"/>
	<path fill="#282828" d="M280.125,380.568c0.562,0.368,1.315,0.213,1.683-0.348c0.298-0.454,0.252-1.035-0.073-1.436
		c0.14-0.012,0.275-0.084,0.358-0.211c0.146-0.219,0.084-0.516-0.137-0.662c-0.22-0.145-0.517-0.082-0.662,0.137
		c-0.075,0.115-0.095,0.249-0.066,0.371c-0.522-0.203-1.132-0.02-1.452,0.467C279.407,379.446,279.563,380.2,280.125,380.568z"/>
	<circle fill="#282828" cx="283.802" cy="381.758" r="0.963"/>
	<circle fill="#282828" cx="285.566" cy="378.721" r="0.963"/>
	<circle fill="#282828" cx="287.485" cy="380.461" r="0.614"/>
	<circle fill="#282828" cx="290.839" cy="385.924" r="0.829"/>
	<path fill="#282828" d="M269.786,401.643c-0.383-0.254-0.898-0.146-1.15,0.238c-0.251,0.381-0.143,0.896,0.239,1.147
		c0.383,0.251,0.896,0.144,1.147-0.237C270.274,402.407,270.168,401.893,269.786,401.643z"/>
	<circle fill="#282828" cx="266.625" cy="400.143" r="0.614"/>
	<path fill="#282828" d="M273.889,395.691c0-5.157,4.182-9.338,9.339-9.338c2.314,0,4.432,0.845,6.064,2.24
		c0.415-0.198,0.971-0.864,0.869-0.872c0.071-0.414-0.1-0.845-0.471-1.089c-0.119-0.079-0.25-0.128-0.38-0.154h0.005
		c0,0-0.276-0.022-0.259-0.295c0.037-0.03,0.072-0.065,0.1-0.109c0.145-0.22,0.083-0.516-0.138-0.662
		c-0.221-0.144-0.517-0.084-0.662,0.137c-0.145,0.22-0.084,0.518,0.136,0.663c0.047,0.03,0.096,0.05,0.146,0.062
		c0.004,0.012,0.01,0.023,0.019,0.032c0.096,0.095,0.056,0.19,0.024,0.237c-0.132,0.055-0.255,0.134-0.359,0.24
		c-0.061-0.103-0.146-0.192-0.253-0.264c-0.21-0.141-0.461-0.167-0.687-0.104c0.119-0.485-0.069-1.012-0.512-1.303
		c-0.146-0.097-0.304-0.156-0.466-0.184c0.066-0.052,0.124-0.115,0.171-0.189c0.081-0.123,0.121-0.259,0.131-0.397
		c0,0.001,0.003,0.005,0.003,0.005s0.154-0.608,0.649-0.371c0.444,0.291,1.042,0.167,1.334-0.275
		c0.292-0.446,0.168-1.044-0.276-1.336c-0.445-0.293-1.042-0.167-1.334,0.276c-0.108,0.165-0.158,0.349-0.158,0.53v-0.001
		c0,0,0,0.004,0,0.011v0.001c0,0.077-0.019,0.523-0.488,0.485c-0.002,0-0.003,0-0.003,0c-0.031-0.025-0.061-0.052-0.094-0.074
		c-0.363-0.239-0.844-0.155-1.107,0.179c-0.072-0.166-0.191-0.314-0.354-0.421c-0.445-0.292-1.041-0.169-1.334,0.275
		c-0.048,0.076-0.084,0.154-0.11,0.236c-0.016-0.013-0.03-0.024-0.044-0.034c-0.242-0.157-0.527-0.191-0.785-0.122
		c0.049-0.052,0.097-0.11,0.138-0.173c0.367-0.561,0.211-1.313-0.35-1.683c-0.561-0.369-1.314-0.212-1.683,0.349
		c-0.193,0.296-0.241,0.644-0.161,0.962c-0.479-0.225-1.061-0.07-1.36,0.386c-0.187,0.284-0.22,0.623-0.123,0.924
		c0.009,0.024,0.017,0.048,0.026,0.07c0.012,0.03,0.025,0.058,0.04,0.085c0.2,0.376,0.519,0.287,0.737,0.42
		c0.001,0.001,0.003,0.005,0.004,0.006c0.208,0.11,0.351,0.327,0.351,0.579c0,0.365-0.296,0.661-0.661,0.661
		c-0.365,0-0.66-0.296-0.66-0.661c0-0.033,0.005-0.067,0.01-0.099c0-0.003,0-0.006,0-0.011c0.04-0.395-0.099-0.561-0.159-0.614
		c-0.01-0.008-0.018-0.015-0.029-0.022c-0.135-0.089-0.286-0.132-0.438-0.135l0,0c-0.003-0.001-0.006,0-0.008,0
		c-0.001,0-0.004,0-0.005,0c-0.034-0.003-0.069,0-0.111,0.009c-0.071,0.01-0.141,0.028-0.207,0.056
		c-0.096,0.023-0.202,0.046-0.315,0.041c-0.165-0.006-0.312-0.16-0.53-0.244c-0.001,0-0.002,0-0.002,0
		c-0.421-0.178-0.921-0.04-1.18,0.356c-0.129,0.196-0.174,0.42-0.15,0.635c0,0.003-0.001,0.004,0,0.006
		c0.001,0.013,0.004,0.022,0.007,0.034c0.022,0.149,0.08,0.292,0.169,0.416c0.017,0.054-0.016,0.072-0.076,0.07
		c-0.005,0.001-0.014,0.002-0.021,0.004c-0.033,0.004-0.067,0.012-0.1,0.018c-0.028,0.007-0.059,0.014-0.092,0.024
		c-0.065,0.015-0.108,0.042-0.138,0.064c-0.017,0.011-0.033,0.021-0.049,0.031c-0.039,0.015-0.107,0.012-0.136-0.133
		c-0.012-0.029-0.022-0.059-0.034-0.089c-0.006-0.016-0.011-0.032-0.018-0.048c-0.01-0.027-0.021-0.052-0.033-0.073
		c-0.001,0-0.001,0-0.001-0.001c-0.073-0.141-0.183-0.269-0.326-0.361c-0.445-0.292-1.042-0.169-1.334,0.276
		c-0.292,0.444-0.168,1.042,0.277,1.335c0.207,0.134,0.446,0.179,0.671,0.144l0.027,0.019c0.122-0.067,0.259-0.106,0.407-0.106
		c0.482,0,0.873,0.391,0.873,0.873s-0.391,0.872-0.873,0.872c-0.481,0-0.872-0.39-0.872-0.872c0-0.005,0.001-0.01,0.001-0.016
		c-0.059-0.248-0.208-0.476-0.438-0.625c-0.48-0.317-1.126-0.184-1.441,0.299c-0.317,0.479-0.182,1.124,0.297,1.44
		c0.145,0.094,0.302,0.148,0.463,0.166c-0.335,0.002-0.662,0.163-0.86,0.46c-0.035-0.027-0.07-0.054-0.107-0.078
		c-0.599-0.395-1.406-0.228-1.8,0.373c-0.393,0.599-0.227,1.405,0.373,1.8c0.199,0.129,0.421,0.198,0.643,0.209
		c-0.038,0.042-0.072,0.085-0.103,0.133c-0.316,0.481-0.184,1.126,0.297,1.442c0.132,0.087,0.277,0.136,0.423,0.157
		c0.338,0.232,0.377,0.654,0.194,0.954c-0.045,0.06-0.39,0.481-0.91,0.129c-0.08-0.097-0.175-0.185-0.288-0.259
		c-0.599-0.393-1.404-0.227-1.798,0.373c-0.299,0.456-0.275,1.031,0.017,1.452c-0.199-0.056-0.411-0.029-0.593,0.062
		c0.03-0.343-0.124-0.688-0.429-0.889c-0.446-0.292-1.043-0.169-1.335,0.276c-0.293,0.445-0.169,1.041,0.275,1.333
		c0.323,0.213,0.726,0.206,1.036,0.017c-0.001,0.271,0.129,0.536,0.373,0.696c0.382,0.25,0.896,0.146,1.147-0.238
		c0.024-0.035,0.043-0.072,0.061-0.11c0,0,0,0,0.001,0c0.038-0.085,0.061-0.173,0.069-0.262c0.122-0.29,0.34-0.324,0.436-0.324
		c0.012,0,0.024,0.002,0.036,0.002c0.006,0,0.011,0.001,0.011,0.001l-0.003-0.001c0.119-0.002,0.237-0.021,0.351-0.056
		c0,0.001,0,0.001,0,0.003c0.004-0.003,0.006-0.003,0.008-0.006c0.094-0.025,0.185-0.064,0.271-0.114
		c0.266-0.046,0.345,0.196,0.276,0.403h-0.001c-0.028,0.044-0.048,0.088-0.067,0.133c-0.002,0.003-0.005,0.007-0.008,0.01
		c-0.032,0.038-0.041,0.074-0.036,0.104c-0.124,0.4,0.02,0.85,0.386,1.09c0.182,0.118,0.387,0.168,0.586,0.155
		c0.071-0.024,0.144-0.04,0.223-0.04c0.049-0.017,0.098-0.033,0.144-0.055c-0.007,0.021-0.012,0.045-0.018,0.066
		c0.311,0.059,0.547,0.33,0.547,0.658c0,0.371-0.302,0.674-0.673,0.674c-0.295,0-0.542-0.192-0.633-0.459
		c-0.022-0.038-0.042-0.086-0.06-0.144c-0.006-0.094-0.025-0.186-0.058-0.272c0-0.003-0.001-0.009-0.002-0.012
		c0-0.001-0.001-0.001-0.002-0.002c-0.071-0.181-0.193-0.343-0.367-0.455c-0.444-0.293-1.042-0.168-1.333,0.276
		c-0.293,0.442-0.168,1.04,0.276,1.334c0.378,0.248,0.865,0.192,1.182-0.103c0.006-0.006,0.013-0.011,0.019-0.017
		c0.005-0.004,0.009-0.009,0.014-0.013c0.002-0.002,0.005-0.004,0.007-0.007c0.227-0.243,0.296-0.08,0.316,0.065
		c-0.137,0.495,0.053,1.042,0.504,1.337c0.02,0.014,0.04,0.025,0.059,0.035c-0.109,0.07-0.206,0.164-0.283,0.279
		c-0.292,0.444-0.168,1.042,0.276,1.335c0.442,0.29,1.032,0.17,1.327-0.266c-0.001,0.346,0.167,0.688,0.478,0.891
		c0.49,0.32,1.146,0.187,1.468-0.306c0.118-0.242,0.078-0.435,0.078-0.435l0.007,0.003c-0.004-0.021-0.007-0.045-0.007-0.065
		c0-0.225,0.183-0.405,0.407-0.405c0.224,0,0.407,0.182,0.407,0.405c0,0.134-0.065,0.25-0.165,0.325l0,0v0.001
		c-0.045,0.033-0.098,0.06-0.154,0.071c-0.035,0.02-0.073,0.042-0.108,0.07c-0.014,0.013-0.029,0.026-0.042,0.041
		c-0.02,0.019-0.042,0.033-0.058,0.059c-0.037,0.04-0.071,0.083-0.103,0.13c-0.14,0.214-0.201,0.454-0.195,0.691
		c-0.119,0.651-0.576,0.351-0.576,0.351c-0.283-0.188-0.665-0.105-0.851,0.177c-0.186,0.283-0.106,0.667,0.176,0.853
		c0.284,0.187,0.665,0.106,0.853-0.176c0.017-0.027,0.029-0.055,0.042-0.082l0.001,0.002c0,0,0.001-0.004,0.003-0.011
		c0.007-0.018,0.013-0.031,0.019-0.052c0.06-0.14,0.246-0.476,0.629-0.31c0.068,0.079,0.148,0.15,0.24,0.21
		c0.105,0.07,0.217,0.12,0.332,0.151c-0.02,0.021-0.039,0.045-0.055,0.067c-0.145,0.222-0.084,0.52,0.136,0.663
		c0.221,0.146,0.518,0.084,0.662-0.137c0.127-0.193,0.095-0.446-0.064-0.604c0.255-0.08,0.485-0.243,0.642-0.484
		c0.056-0.086,0.098-0.178,0.131-0.271c0.098,0.218,0.256,0.412,0.47,0.554c0.6,0.394,1.405,0.228,1.799-0.374
		c0.052-0.079,0.093-0.16,0.125-0.246c0.034-0.091,0.056-0.173,0.071-0.251C276.521,403.259,273.889,399.784,273.889,395.691z"/>
</g>
</svg>
